<svg width="295" height="295" viewBox="0 0 295 295" fill="none" xmlns="http://www.w3.org/2000/svg">
<rect width="295" height="295" rx="84" fill="black"/>
<path fill-rule="evenodd" clip-rule="evenodd" d="M250.77 121.678C255.667 148.635 253.19 175.68 241.441 199.46L223.226 184.727C230.443 165.455 232.717 147.475 227.849 127.175C222.981 106.875 210.692 89.1327 193.4 77.4382C176.108 65.7437 155.065 60.9443 134.412 63.9843C113.76 67.0244 94.9926 77.6838 81.8039 93.8651C68.6152 110.046 61.9601 130.578 63.148 151.419C64.3359 172.261 73.2808 191.903 88.2227 206.481C103.165 221.058 123.021 229.516 143.886 230.19C164.75 230.864 184.148 220.866 196.25 211.059L216.3 228.019C195.978 245.434 169.874 254.612 143.125 253.749C116.376 252.885 90.9186 242.041 71.7624 223.352C52.6062 204.662 41.1383 179.48 39.6154 152.76C38.0924 126.041 46.6246 99.7186 63.5331 78.9734C80.4416 58.2282 104.502 44.5623 130.98 40.6648C157.457 36.7673 184.435 42.9204 206.604 57.9133C228.773 72.9063 244.529 95.6533 250.77 121.678ZM120.334 165.33L168.334 206.752L184.516 187.76L231.696 227.342L221.576 239.232L268.562 246.822L253.888 201.175L243.083 213.977L180.429 161.209L165.445 178.795L132.92 150.558L120.334 165.33Z" fill="url(#paint0_linear_16_4)"/>
<defs>
<linearGradient id="paint0_linear_16_4" x1="160.609" y1="40.0214" x2="151.517" y2="254.111" gradientUnits="userSpaceOnUse">
<stop stop-color="#E2E2E2"/>
<stop offset="1" stop-color="#C4C4C4"/>
</linearGradient>
</defs>
</svg>
